<?xml version="1.0" standalone="no"?>
<!DOCTYPE svg PUBLIC "-//W3C//DTD SVG 20010904//EN"
 "http://www.w3.org/TR/2001/REC-SVG-20010904/DTD/svg10.dtd">
<svg version="1.0" xmlns="http://www.w3.org/2000/svg"
 width="500.000000pt" height="500.000000pt" viewBox="0 0 500.000000 500.000000"
 preserveAspectRatio="xMidYMid meet">
<metadata>
Created by potrace 1.14, written by Peter Selinger 2001-2017
</metadata>
<g transform="translate(0.000000,500.000000) scale(0.100000,-0.100000)"
fill="#000000" stroke="none">
<path d="M1222 4988 c-231 -29 -475 -128 -660 -268 -43 -32 -121 -103 -173
-157 -187 -196 -300 -411 -361 -686 l-23 -102 0 -1270 c0 -1185 1 -1276 18
-1359 28 -139 64 -241 128 -371 73 -148 158 -262 286 -385 196 -188 410 -301
686 -362 l102 -23 1270 0 c1185 0 1276 1 1359 18 139 28 241 64 371 128 148
73 262 158 385 286 188 196 301 410 362 686 l23 102 0 1270 c0 1185 -1 1276
-18 1359 -28 139 -64 241 -128 371 -73 148 -158 262 -286 385 -194 186 -407
299 -681 362 l-97 22 -1245 2 c-722 1 -1276 -2 -1318 -8z m623 -1222 c385 -62
590 -217 667 -505 27 -103 30 -307 4 -401 -50 -182 -189 -346 -378 -445 l-68
-36 113 -167 c312 -458 617 -912 617 -917 0 -3 -129 -5 -287 -5 l-288 0 -296
478 -296 477 -146 3 -147 3 0 -481 0 -480 -260 0 -260 0 0 1251 0 1251 463 -5
c358 -4 484 -8 562 -21z m1815 -366 l0 -200 265 0 265 0 0 -195 0 -195 -265 0
-265 0 0 -492 c0 -460 2 -496 19 -534 21 -45 67 -85 120 -103 52 -17 177 -13
276 10 50 12 100 23 113 26 l22 5 0 -190 0 -191 -62 -19 c-147 -46 -228 -57
-398 -57 -181 1 -247 13 -349 65 -70 35 -159 128 -193 200 -59 126 -61 147
-65 738 l-5 542 -124 0 -124 0 0 108 0 107 146 90 147 90 66 180 c37 99 70
188 74 198 6 15 24 17 172 17 l165 0 0 -200z"/>
<path d="M1340 3021 l0 -341 158 0 c100 0 182 6 227 15 195 42 280 143 280
336 0 75 -4 92 -30 145 -64 125 -190 173 -467 182 l-168 5 0 -342z"/>
</g>
</svg>
