<svg width="500" height="500" viewBox="0 0 500 500" fill="none" xmlns="http://www.w3.org/2000/svg">
<rect x="7.5" y="7.5" width="485" height="485" rx="132.5" fill="#020617" stroke="#FACC15" stroke-width="15"/>
<path d="M154.3 121.1C176.933 121.1 195.6 123.9 210.3 129.5C225 134.867 235.967 143.15 243.2 154.35C250.433 165.317 254.05 179.2 254.05 196C254.05 207.433 251.833 217.467 247.4 226.1C243.2 234.5 237.483 241.733 230.25 247.8C223.25 253.633 215.667 258.417 207.5 262.15L281 371H222.2L162.7 275.1H134.35V371H81.5V121.1H154.3ZM150.45 164.5H134.35V232.05H151.5C163.167 232.05 172.617 230.767 179.85 228.2C187.083 225.633 192.333 221.783 195.6 216.65C198.867 211.283 200.5 204.867 200.5 197.4C200.5 189.467 198.633 183.167 194.9 178.5C191.4 173.6 185.917 170.1 178.45 168C171.217 165.667 161.883 164.5 150.45 164.5ZM388.855 332.85C394.688 332.85 400.288 332.267 405.655 331.1C411.021 329.933 416.388 328.533 421.755 326.9V365.75C416.155 368.083 409.155 370.067 400.755 371.7C392.588 373.567 383.605 374.5 373.805 374.5C362.371 374.5 352.105 372.633 343.005 368.9C334.138 365.167 327.021 358.75 321.655 349.65C316.521 340.317 313.955 327.483 313.955 311.15V219.1H289.105V197.05L317.805 179.55L332.855 139.3H366.105V179.9H419.655V219.1H366.105V311.15C366.105 318.383 368.205 323.867 372.405 327.6C376.605 331.1 382.088 332.85 388.855 332.85Z" fill="#FACC15"/>
</svg>
